<svg width="11" height="11" viewBox="0 0 11 11" fill="none" xmlns="http://www.w3.org/2000/svg">
<path d="M10.753 10.253C10.9485 10.0575 10.9485 9.74052 10.753 9.54504L6.51 5.303L10.7529 1.06098C10.9484 0.86553 10.9483 0.548566 10.7527 0.353231C10.5573 0.158106 10.2408 0.158218 10.0455 0.353481L5.803 4.596L1.5605 0.3535C1.36527 0.158267 1.04873 0.158267 0.8535 0.3535C0.658267 0.548733 0.658267 0.865267 0.8535 1.0605L5.096 5.303L0.853481 9.54552C0.658218 9.74078 0.658106 10.0573 0.853231 10.2527C1.04857 10.4483 1.36553 10.4484 1.56098 10.2529L5.803 6.01L10.045 10.253C10.2405 10.4485 10.5575 10.4485 10.753 10.253Z" fill="#838691"/>
</svg>
