<svg width="21" height="32" viewBox="0 0 21 32" fill="none" xmlns="http://www.w3.org/2000/svg">
<path d="M17.353 22.1465L14.506 19.3025C15.437 18.2115 16 16.7975 16 15.2505C16 11.7985 13.202 9.00049 9.75 9.00049C6.298 9.00049 3.5 11.7985 3.5 15.2505C3.5 18.7025 6.298 21.5005 9.75 21.5005C11.295 21.5005 12.708 20.9385 13.799 20.0095L16.647 22.8535C16.745 22.9515 16.872 22.9995 17 22.9995C17.128 22.9995 17.256 22.9505 17.354 22.8525C17.549 22.6585 17.549 22.3415 17.353 22.1465ZM4.5 15.2505C4.5 12.3555 6.855 10.0005 9.75 10.0005C12.645 10.0005 15 12.3555 15 15.2505C15 18.1455 12.645 20.5005 9.75 20.5005C6.855 20.5005 4.5 18.1455 4.5 15.2505Z" fill="#838691"/>
</svg>
